<?xml version="1.0" encoding="UTF-8" standalone="no"?>
<!DOCTYPE svg PUBLIC "-//W3C//DTD SVG 1.1//EN" "http://www.w3.org/Graphics/SVG/1.1/DTD/svg11.dtd">
<svg width="100%" height="100%" viewBox="0 0 32 32" version="1.1" xmlns="http://www.w3.org/2000/svg" xmlns:xlink="http://www.w3.org/1999/xlink" xml:space="preserve" xmlns:serif="http://www.serif.com/" style="fill-rule:evenodd;clip-rule:evenodd;stroke-linejoin:round;stroke-miterlimit:1.41421;">
    <g transform="matrix(2.02926,0,0,2.02926,-7.56007,5.94104)">
        <path d="M10.266,9.337L8.586,9.337L8.586,8.689C8.394,8.929 8.144,9.117 7.836,9.253C7.528,9.389 7.174,9.457 6.774,9.457C5.958,9.457 5.306,9.181 4.818,8.629C4.33,8.077 4.086,7.301 4.086,6.301C4.086,5.341 4.316,4.587 4.776,4.039C5.236,3.491 5.878,3.217 6.702,3.217C7.51,3.217 8.138,3.481 8.586,4.009L8.586,0.457L10.266,0.457L10.266,9.337ZM7.266,8.077C7.658,8.077 7.976,7.989 8.22,7.813C8.464,7.637 8.586,7.409 8.586,7.129L8.586,5.725C8.586,5.589 8.54,5.433 8.448,5.257C8.356,5.081 8.206,4.927 7.998,4.795C7.79,4.663 7.518,4.597 7.182,4.597C6.71,4.597 6.356,4.743 6.12,5.035C5.884,5.327 5.766,5.749 5.766,6.301C5.766,6.877 5.892,7.317 6.144,7.621C6.396,7.925 6.77,8.077 7.266,8.077Z" style="fill:white;fill-rule:nonzero;"/>
        <path d="M18.078,4.705C18.734,5.169 19.062,5.881 19.062,6.841C19.062,7.697 18.8,8.327 18.276,8.731C17.752,9.135 16.878,9.337 15.654,9.337L11.826,9.337L11.826,0.457L15.402,0.457C16.25,0.457 16.922,0.545 17.418,0.721C17.914,0.897 18.268,1.161 18.48,1.513C18.692,1.865 18.798,2.317 18.798,2.869C18.798,3.645 18.558,4.257 18.078,4.705ZM15.402,4.105C15.994,4.105 16.416,4.031 16.668,3.883C16.92,3.735 17.046,3.437 17.046,2.989C17.046,2.573 16.924,2.283 16.68,2.119C16.436,1.955 16.01,1.873 15.402,1.873L13.53,1.873L13.53,4.105L15.402,4.105ZM15.654,7.921C16.238,7.921 16.66,7.837 16.92,7.669C17.18,7.501 17.31,7.185 17.31,6.721C17.31,6.257 17.182,5.941 16.926,5.773C16.67,5.605 16.246,5.521 15.654,5.521L13.53,5.521L13.53,7.921L15.654,7.921Z" style="fill:white;fill-rule:nonzero;"/>
    </g>
</svg>
