<?xml version="1.0" encoding="utf-8"?>
<!-- Generator: Adobe Illustrator 23.0.4, SVG Export Plug-In . SVG Version: 6.00 Build 0)  -->
<svg version="1.1" id="icon" xmlns="http://www.w3.org/2000/svg" xmlns:xlink="http://www.w3.org/1999/xlink" x="0px" y="0px"
	 viewBox="0 0 800 800" style="enable-background:new 0 0 800 800;" xml:space="preserve">
<style type="text/css">
	.st0{fill:#FFFFFF;}
	.st1{fill:none;stroke:#FFFFFF;stroke-width:20;stroke-linecap:round;stroke-linejoin:round;stroke-miterlimit:10;}
	.st2{fill:none;stroke:#FFFFFF;stroke-width:42;stroke-linecap:round;stroke-linejoin:round;stroke-miterlimit:10;}
	.st3{fill:none;stroke:#FFFFFF;stroke-width:73;stroke-linecap:square;stroke-miterlimit:10;}
</style>
<g>
	<path class="st0" d="M478.01,137.88c13.61,0,27.2,5.31,37.4,15.87l139.84,144.71c19.96,20.65,19.39,53.57-1.26,73.53l-325.8,314.83
		c-10.09,9.75-23.12,14.61-36.13,14.61c-13.61,0-27.2-5.31-37.4-15.87L114.82,540.85c-19.96-20.65-19.39-53.57,1.26-73.53
		l325.8-314.83C451.97,142.73,465,137.88,478.01,137.88 M478.01,45.88L478.01,45.88c-37.53,0-73.07,14.36-100.06,40.45L52.15,401.16
		c-13.95,13.48-24.86,29.34-32.44,47.13c-7.3,17.14-11.16,35.29-11.48,53.95c-0.32,18.66,2.92,36.93,9.62,54.31
		c6.96,18.04,17.32,34.27,30.81,48.22L188.5,749.49c13.79,14.27,30.04,25.34,48.3,32.93c17.59,7.3,36.18,11.01,55.26,11.01
		c37.53,0,73.07-14.36,100.06-40.45l325.8-314.83c13.95-13.48,24.86-29.34,32.44-47.13c7.3-17.14,11.16-35.29,11.48-53.95
		c0.32-18.66-2.92-36.93-9.62-54.31c-6.96-18.04-17.32-34.27-30.81-48.22L581.57,89.81c-13.78-14.26-30.03-25.34-48.3-32.93
		C515.68,49.58,497.09,45.88,478.01,45.88L478.01,45.88z"/>
</g>
<line class="st1" x1="253.78" y1="386.12" x2="326.57" y2="316.59"/>
<line class="st1" x1="204.9" y1="433.92" x2="219.02" y2="419.65"/>
<line class="st2" x1="464" y1="265.83" x2="547.62" y2="355.59"/>
<line class="st2" x1="467.87" y1="348.59" x2="541.75" y2="273.63"/>
<line class="st2" x1="203.43" y1="528.65" x2="276.21" y2="604.7"/>
<path class="st3" d="M609.33,91.09c16.05-15.97,42.01-15.91,57.98,0.14l55.74,56.01c15.97,16.05,15.91,42.01-0.14,57.98"/>
</svg>
