<?xml version="1.0" encoding="UTF-8" standalone="no"?>
<!DOCTYPE svg PUBLIC "-//W3C//DTD SVG 1.1//EN" "http://www.w3.org/Graphics/SVG/1.1/DTD/svg11.dtd">
<svg width="100%" height="100%" viewBox="0 0 32 32" version="1.1" xmlns="http://www.w3.org/2000/svg" xmlns:xlink="http://www.w3.org/1999/xlink" xml:space="preserve" xmlns:serif="http://www.serif.com/" style="fill-rule:evenodd;clip-rule:evenodd;stroke-linejoin:round;stroke-miterlimit:1.41421;">
    <path d="M13.5,4.813C12.604,4.813 11.719,4.907 10.844,5.094C9.99,5.261 9.157,5.511 8.344,5.844C7.531,6.177 6.76,6.594 6.031,7.094C5.281,7.573 4.593,8.136 3.968,8.782C3.322,9.428 2.749,10.116 2.249,10.845C1.77,11.574 1.363,12.345 1.03,13.158C0.697,13.971 0.436,14.814 0.249,15.689C0.082,16.543 -0.001,17.428 -0.001,18.345C-0.001,19.241 0.082,20.126 0.249,21.001C0.436,21.855 0.697,22.688 1.03,23.501C1.363,24.314 1.77,25.085 2.249,25.814C2.749,26.564 3.322,27.252 3.968,27.877C4.593,28.523 5.281,29.096 6.031,29.596C6.76,30.075 7.531,30.482 8.344,30.815C9.157,31.148 9.99,31.409 10.844,31.596C11.719,31.763 12.605,31.846 13.5,31.846C14.417,31.846 15.302,31.763 16.156,31.596C17.031,31.409 17.875,31.148 18.687,30.815C19.499,30.482 20.27,30.075 21,29.596C21.729,29.096 22.417,28.523 23.063,27.877C23.709,27.252 24.272,26.564 24.751,25.814C25.251,25.085 25.668,24.314 26.001,23.501C26.334,22.688 26.584,21.855 26.751,21.001C26.938,20.126 27.032,19.24 27.032,18.345C27.032,17.428 26.938,16.543 26.751,15.689C26.584,14.814 26.334,13.97 26.001,13.158C25.668,12.346 25.251,11.575 24.751,10.845C24.272,10.116 23.709,9.428 23.063,8.782C22.417,8.136 21.729,7.573 21,7.094C20.271,6.594 19.5,6.177 18.687,5.844C17.874,5.511 17.031,5.261 16.156,5.094C15.302,4.907 14.417,4.813 13.5,4.813ZM2.906,12.375L2.906,12.281C3.302,11.594 3.76,10.953 4.281,10.359C4.802,9.765 5.375,9.218 6,8.718C5.917,8.947 5.865,9.166 5.844,9.374C5.823,9.582 5.823,9.801 5.844,10.03C5.927,11.009 6.328,11.843 7.047,12.53C7.766,13.217 8.354,13.697 8.813,13.968C8.709,14.177 8.631,14.385 8.579,14.593C8.527,14.801 8.491,15.02 8.47,15.249C8.407,15.978 8.538,16.713 8.861,17.452C9.184,18.191 9.7,18.915 10.408,19.624C10.575,19.77 10.731,19.916 10.877,20.062C11.023,20.208 11.169,20.333 11.315,20.437C11.648,20.729 11.909,20.974 12.096,21.171C12.283,21.368 12.377,21.561 12.377,21.749C12.377,21.958 12.273,22.218 12.064,22.53C11.855,22.842 11.543,23.217 11.126,23.655C10.334,24.447 9.813,25.155 9.563,25.78C9.313,26.405 9.167,26.926 9.125,27.343C9.083,27.28 9.047,27.207 9.016,27.124C8.985,27.041 8.949,26.957 8.907,26.874C8.803,26.582 8.725,26.176 8.673,25.655C8.621,25.134 8.678,24.478 8.845,23.686C8.887,23.54 8.871,23.405 8.798,23.28C8.725,23.155 8.626,23.072 8.501,23.03C8.001,22.843 7.657,22.541 7.47,22.124C7.283,21.707 7.168,21.322 7.126,20.968C7.105,20.843 7.095,20.723 7.095,20.609L7.095,20.281C7.387,20.364 7.642,20.396 7.861,20.375C8.08,20.354 8.272,20.281 8.439,20.156C8.564,20.031 8.669,19.854 8.752,19.625C8.835,19.396 8.814,19.073 8.689,18.656C8.522,18.135 8.319,17.802 8.08,17.656C7.841,17.51 7.627,17.447 7.439,17.468C7.168,17.489 6.939,17.608 6.751,17.827C6.563,18.046 6.407,18.301 6.282,18.593C6.157,18.51 6.016,18.405 5.86,18.28C5.704,18.155 5.543,18.019 5.376,17.874C5.022,17.561 4.465,16.895 3.704,15.874C2.943,14.853 2.678,13.687 2.907,12.374L2.906,12.375ZM7.313,19.156C7.334,19.052 7.36,18.969 7.391,18.906C7.422,18.843 7.459,18.781 7.5,18.718C7.5,18.76 7.51,18.802 7.531,18.843C7.552,18.884 7.573,18.936 7.594,18.999L7.641,19.14C7.694,19.297 7.699,19.323 7.657,19.218C7.615,19.218 7.563,19.213 7.501,19.202C7.439,19.191 7.376,19.176 7.313,19.155L7.313,19.156ZM24.188,12.438C24.563,13.105 24.871,13.797 25.11,14.516C25.349,15.235 25.511,15.99 25.594,16.782L25.5,16.782C25.521,17.574 25.479,17.584 25.375,16.813C25.125,16.938 24.719,17.121 24.156,17.36C23.593,17.599 23.177,17.761 22.906,17.844C22.781,17.886 22.676,17.964 22.593,18.078C22.51,18.192 22.478,18.322 22.499,18.469C22.624,19.323 22.551,20.125 22.28,20.875C22.009,21.625 21.654,22.307 21.217,22.922C20.78,23.537 20.332,24.063 19.873,24.5C19.394,24.937 19.019,25.26 18.748,25.469C18.706,25.302 18.67,25.042 18.639,24.688C18.608,24.334 18.624,23.813 18.686,23.125C18.707,22.688 18.701,22.318 18.67,22.016C18.639,21.714 18.561,21.459 18.436,21.25C18.332,21.021 18.191,20.859 18.014,20.766C17.837,20.673 17.675,20.595 17.53,20.532C17.363,20.469 17.223,20.396 17.108,20.313C16.993,20.23 16.874,20.073 16.749,19.844C16.54,19.302 16.488,18.901 16.593,18.641C16.698,18.381 16.781,18.209 16.843,18.125C17.343,17.542 18.202,17.224 19.421,17.172C20.64,17.12 21.426,17.125 21.78,17.188C21.801,17.188 21.822,17.193 21.843,17.204C21.864,17.215 21.885,17.22 21.906,17.22C22.052,17.241 22.187,17.215 22.312,17.142C22.437,17.069 22.52,16.97 22.562,16.845C22.604,16.72 22.604,16.595 22.562,16.47C22.52,16.345 22.447,16.252 22.343,16.189C22.322,16.168 22.291,16.147 22.249,16.126C22.207,16.105 22.134,16.084 22.03,16.063C21.78,15.98 21.431,15.787 20.983,15.485C20.535,15.183 20.082,14.876 19.624,14.563C19.374,14.376 19.119,14.193 18.858,14.016C18.597,13.839 18.342,13.667 18.092,13.5C18.196,13.396 18.305,13.297 18.42,13.203C18.535,13.109 18.665,13.031 18.811,12.969C19.832,12.323 20.931,12.073 22.108,12.219C23.285,12.365 23.884,12.448 23.905,12.469L24.046,12.469C24.161,12.49 24.208,12.479 24.187,12.438L24.188,12.438ZM18.219,12C17.99,12.125 17.787,12.266 17.61,12.422C17.433,12.578 17.261,12.739 17.094,12.906C16.698,12.719 16.328,12.599 15.985,12.547C15.642,12.495 15.345,12.552 15.094,12.719C14.719,12.99 14.562,13.412 14.625,13.985C14.688,14.558 14.802,15.116 14.969,15.657C14.969,15.678 14.979,15.704 15,15.735C15.021,15.766 15.031,15.792 15.031,15.813C15.198,16.022 15.401,16.162 15.64,16.235C15.879,16.308 16.093,16.323 16.281,16.282C16.469,16.241 16.625,16.163 16.75,16.048C16.875,15.933 16.958,15.803 17,15.657C17.063,15.428 17.125,15.214 17.188,15.016C17.251,14.818 17.334,14.625 17.438,14.438C17.688,14.605 17.943,14.777 18.204,14.954C18.465,15.131 18.72,15.314 18.97,15.501C19.095,15.584 19.22,15.673 19.345,15.767C19.47,15.861 19.595,15.939 19.72,16.001C18.97,16.064 18.314,16.178 17.751,16.345C17.188,16.512 16.73,16.741 16.376,17.033C16.043,17.283 15.761,17.668 15.532,18.189C15.303,18.71 15.355,19.408 15.688,20.283C15.709,20.283 15.719,20.288 15.719,20.299L15.719,20.315C15.928,20.774 16.162,21.081 16.422,21.237C16.682,21.393 16.916,21.513 17.125,21.596C17.229,21.638 17.302,21.674 17.344,21.705C17.386,21.736 17.417,21.772 17.438,21.814C17.48,21.877 17.516,22.002 17.547,22.189C17.578,22.376 17.572,22.658 17.531,23.033C17.448,24.325 17.479,25.205 17.625,25.674C17.771,26.143 17.927,26.44 18.094,26.565C18.198,26.669 18.297,26.732 18.391,26.753C18.485,26.774 18.574,26.785 18.657,26.784L18.813,26.784C18.834,26.763 18.86,26.748 18.891,26.737C18.922,26.726 18.959,26.711 19,26.69C19.021,26.669 19.297,26.456 19.828,26.049C20.359,25.642 20.927,25.085 21.531,24.377C22.302,23.481 22.869,22.559 23.234,21.611C23.599,20.663 23.75,19.72 23.687,18.783C24.02,18.658 24.39,18.507 24.796,18.33C25.202,18.153 25.499,18.023 25.687,17.939C25.708,18.002 25.718,18.064 25.718,18.127L25.718,18.346C25.718,20.013 25.395,21.586 24.749,23.065C24.103,24.565 23.228,25.867 22.124,26.971C21.02,28.075 19.728,28.94 18.249,29.565C16.77,30.211 15.186,30.534 13.499,30.534C11.832,30.534 10.249,30.211 8.749,29.565C7.27,28.94 5.978,28.075 4.874,26.971C3.77,25.867 2.905,24.565 2.28,23.065C1.634,21.586 1.311,20.013 1.311,18.346C1.311,17.679 1.363,17.028 1.467,16.393C1.571,15.758 1.717,15.138 1.905,14.534C2.218,15.721 2.796,16.779 3.639,17.706C4.482,18.633 5.269,19.326 5.998,19.784C5.915,20.493 5.982,21.248 6.201,22.05C6.42,22.852 6.904,23.461 7.654,23.878C7.425,25.17 7.44,26.17 7.701,26.878C7.962,27.586 8.196,28.055 8.404,28.284C8.571,28.493 8.753,28.659 8.951,28.784C9.149,28.909 9.342,28.971 9.529,28.972C9.612,28.972 9.701,28.951 9.795,28.909C9.889,28.867 9.967,28.815 10.029,28.753C10.133,28.649 10.196,28.529 10.217,28.394C10.238,28.259 10.249,28.108 10.248,27.941C10.248,27.628 10.316,27.18 10.451,26.597C10.586,26.014 11.081,25.295 11.935,24.441C12.498,23.878 12.904,23.384 13.154,22.957C13.404,22.53 13.519,22.119 13.498,21.723C13.498,21.286 13.352,20.905 13.06,20.582C12.768,20.259 12.435,19.931 12.06,19.598C11.914,19.473 11.773,19.348 11.638,19.223C11.503,19.098 11.362,18.963 11.216,18.817C10.633,18.234 10.206,17.65 9.935,17.067C9.664,16.484 9.55,15.911 9.591,15.348C9.612,15.244 9.633,15.135 9.654,15.02C9.675,14.905 9.707,14.796 9.748,14.692C9.79,14.713 9.837,14.744 9.889,14.786C9.941,14.828 9.998,14.87 10.061,14.911C10.478,15.182 10.847,15.364 11.17,15.458C11.493,15.552 11.79,15.547 12.061,15.442C12.228,15.379 12.4,15.244 12.577,15.036C12.754,14.828 12.864,14.505 12.905,14.067C12.968,13.504 12.952,13.02 12.858,12.614C12.764,12.208 12.603,11.89 12.374,11.661C12.165,11.452 11.962,11.333 11.765,11.302C11.568,11.271 11.448,11.256 11.406,11.255C11.343,11.255 11.281,11.271 11.218,11.302C11.155,11.333 11.103,11.37 11.062,11.411C10.708,11.661 10.39,11.916 10.109,12.177C9.828,12.438 9.583,12.714 9.375,13.005C8.938,12.713 8.443,12.296 7.891,11.755C7.339,11.214 7.032,10.609 6.969,9.942C6.948,9.505 7.053,9.062 7.282,8.614C7.511,8.166 7.876,7.723 8.376,7.286C9.147,6.911 9.964,6.624 10.829,6.427C11.694,6.23 12.584,6.131 13.501,6.13C14.522,6.13 15.511,6.255 16.47,6.505C17.407,6.734 18.298,7.073 19.142,7.521C19.986,7.969 20.772,8.505 21.501,9.13C22.21,9.755 22.845,10.443 23.407,11.193C22.824,11.11 22.032,11.084 21.032,11.115C20.032,11.146 19.094,11.443 18.219,12.006L18.219,12ZM16.438,13.875C16.355,14.062 16.271,14.255 16.188,14.453C16.105,14.651 16.032,14.854 15.969,15.062C15.844,14.583 15.776,14.239 15.766,14.031C15.756,13.823 15.761,13.698 15.782,13.656C15.824,13.656 15.897,13.666 16.001,13.687C16.105,13.708 16.251,13.77 16.439,13.875L16.438,13.875ZM10.281,13.656C10.468,13.406 10.671,13.182 10.89,12.984C11.109,12.786 11.333,12.604 11.562,12.437L11.593,12.468C11.635,12.531 11.687,12.666 11.749,12.874C11.811,13.082 11.821,13.436 11.78,13.937C11.759,14.104 11.738,14.218 11.717,14.281C11.696,14.344 11.675,14.375 11.654,14.375C11.55,14.396 11.368,14.338 11.107,14.203C10.846,14.068 10.57,13.885 10.279,13.656L10.281,13.656ZM24.5,5C24.458,4.979 24.416,4.964 24.375,4.953C24.334,4.942 24.292,4.937 24.25,4.937C24.125,4.937 24.005,4.973 23.891,5.046C23.777,5.119 23.699,5.218 23.657,5.343C23.574,5.51 23.568,5.676 23.641,5.843C23.714,6.01 23.833,6.124 24,6.187C24.396,6.354 24.755,6.593 25.078,6.906C25.401,7.219 25.645,7.583 25.812,8C25.875,8.125 25.958,8.224 26.062,8.297C26.166,8.37 26.281,8.406 26.406,8.406C26.448,8.406 26.49,8.401 26.531,8.39C26.572,8.379 26.614,8.364 26.656,8.343C26.739,8.322 26.812,8.281 26.875,8.218C26.938,8.155 26.979,8.082 27,7.999C27.042,7.916 27.063,7.832 27.063,7.749C27.063,7.666 27.042,7.582 27,7.499C26.771,6.936 26.437,6.436 26,5.999C25.563,5.562 25.063,5.228 24.5,4.999L24.5,5ZM31.938,5.469C31.438,4.24 30.719,3.156 29.782,2.219C28.845,1.282 27.761,0.563 26.532,0.063C26.49,0.042 26.448,0.027 26.407,0.016C26.366,0.005 26.324,0 26.282,0C26.157,0 26.042,0.036 25.938,0.109C25.834,0.182 25.751,0.281 25.688,0.406C25.667,0.489 25.657,0.573 25.657,0.656C25.657,0.739 25.667,0.823 25.688,0.906C25.73,0.989 25.777,1.057 25.829,1.109C25.881,1.161 25.949,1.208 26.032,1.25C27.095,1.687 28.037,2.318 28.86,3.141C29.683,3.964 30.313,4.907 30.751,5.969C30.793,6.073 30.871,6.162 30.985,6.235C31.099,6.308 31.219,6.345 31.344,6.344L31.469,6.344C31.678,6.343 31.719,6.333 31.594,6.313C31.761,6.23 31.88,6.11 31.953,5.954C32.026,5.798 32.02,5.637 31.937,5.47L31.938,5.469ZM25.531,2.531C25.489,2.51 25.447,2.495 25.406,2.484C25.365,2.473 25.323,2.468 25.281,2.468C25.135,2.468 25.01,2.504 24.906,2.577C24.802,2.65 24.719,2.749 24.656,2.874C24.635,2.957 24.625,3.041 24.625,3.124C24.625,3.207 24.635,3.291 24.656,3.374C24.698,3.457 24.75,3.525 24.812,3.577C24.874,3.629 24.947,3.676 25.031,3.718C25.76,4.031 26.406,4.468 26.969,5.031C27.532,5.594 27.969,6.24 28.282,6.969C28.324,7.094 28.402,7.193 28.516,7.266C28.63,7.339 28.75,7.375 28.875,7.375C28.917,7.375 28.959,7.37 29,7.359C29.041,7.348 29.083,7.333 29.125,7.312C29.208,7.291 29.281,7.25 29.344,7.187C29.407,7.124 29.448,7.051 29.469,6.968C29.511,6.885 29.532,6.801 29.532,6.718C29.532,6.635 29.511,6.551 29.469,6.468C29.115,5.593 28.589,4.806 27.891,4.109C27.193,3.412 26.407,2.886 25.532,2.531L25.531,2.531Z" style="fill:white;fill-rule:nonzero;"/>
</svg>
