<?xml version="1.0" encoding="utf-8"?>
<!-- Generator: Adobe Illustrator 23.0.4, SVG Export Plug-In . SVG Version: 6.00 Build 0)  -->
<svg version="1.1" id="icon" xmlns="http://www.w3.org/2000/svg" xmlns:xlink="http://www.w3.org/1999/xlink" x="0px" y="0px"
	 viewBox="0 0 800 800" style="enable-background:new 0 0 800 800;" xml:space="preserve">
<style type="text/css">
	.st0{fill:#FFFFFF;}
</style>
<g id="abacus">
	<path class="st0" d="M114.43,733.71c0,30.53-24.75,55.29-55.3,55.29l0,0c-30.53,0-55.29-24.75-55.29-55.29V70.28
		C3.84,39.75,28.6,15,59.13,15l0,0c30.54,0,55.3,24.75,55.3,55.28V733.71z"/>
	<path class="st0" d="M235.53,175.84c0,23.24-18.84,42.09-42.1,42.09c-23.24,0-42.1-18.84-42.1-42.09
		c0-23.24,18.86-42.09,42.1-42.09C216.69,133.76,235.53,152.6,235.53,175.84z"/>
	<path class="st0" d="M349.5,175.84c0,23.24-18.84,42.09-42.1,42.09c-23.24,0-42.08-18.84-42.08-42.09
		c0-23.24,18.84-42.09,42.08-42.09C330.66,133.76,349.5,152.6,349.5,175.84z"/>
	<path class="st0" d="M463.48,175.84c0,23.24-18.85,42.09-42.09,42.09c-23.24,0-42.08-18.84-42.08-42.09
		c0-23.24,18.84-42.09,42.08-42.09C444.63,133.76,463.48,152.6,463.48,175.84z"/>
	<path class="st0" d="M327.12,326.61c0,23.24-18.84,42.09-42.1,42.09c-23.24,0-42.09-18.84-42.09-42.09
		c0-23.25,18.84-42.09,42.09-42.09C308.28,284.53,327.12,303.37,327.12,326.61z"/>
	<path class="st0" d="M441.11,326.61c0,23.24-18.86,42.09-42.1,42.09c-23.24,0-42.09-18.84-42.09-42.09
		c0-23.25,18.84-42.09,42.09-42.09C422.25,284.53,441.11,303.37,441.11,326.61z"/>
	<path class="st0" d="M555.08,326.61c0,23.24-18.84,42.09-42.09,42.09c-23.24,0-42.08-18.84-42.08-42.09
		c0-23.25,18.84-42.09,42.08-42.09C536.24,284.53,555.08,303.37,555.08,326.61z"/>
	<path class="st0" d="M235.53,477.39c0,23.24-18.84,42.11-42.1,42.11c-23.24,0-42.1-18.87-42.1-42.11
		c0-23.24,18.86-42.09,42.1-42.09C216.69,435.3,235.53,454.14,235.53,477.39z"/>
	<path class="st0" d="M349.5,477.39c0,23.24-18.84,42.11-42.1,42.11c-23.24,0-42.08-18.87-42.08-42.11
		c0-23.24,18.84-42.09,42.08-42.09C330.66,435.3,349.5,454.14,349.5,477.39z"/>
	<path class="st0" d="M463.48,477.39c0,23.24-18.85,42.11-42.09,42.11c-23.24,0-42.08-18.87-42.08-42.11
		c0-23.24,18.84-42.09,42.08-42.09C444.63,435.3,463.48,454.14,463.48,477.39z"/>
	<path class="st0" d="M415.49,628.18c0,23.24-18.86,42.09-42.1,42.09c-23.24,0-42.09-18.85-42.09-42.09
		c0-23.24,18.84-42.11,42.09-42.11C396.64,586.07,415.49,604.94,415.49,628.18z"/>
	<path class="st0" d="M529.46,628.18c0,23.24-18.84,42.09-42.09,42.09c-23.24,0-42.08-18.85-42.08-42.09
		c0-23.24,18.84-42.11,42.08-42.11C510.62,586.07,529.46,604.94,529.46,628.18z"/>
	<path class="st0" d="M643.44,628.18c0,23.24-18.84,42.09-42.08,42.09c-23.25,0-42.1-18.85-42.1-42.09
		c0-23.24,18.84-42.11,42.1-42.11C624.6,586.07,643.44,604.94,643.44,628.18z"/>
	<path class="st0" d="M797.95,733.71c0,30.53-24.75,55.29-55.28,55.29l0,0c-30.53,0-55.29-24.75-55.29-55.29V70.28
		c0-30.53,24.76-55.28,55.29-55.28l0,0c30.53,0,55.28,24.75,55.28,55.28V733.71z"/>
	<g>
		<path class="st0" d="M469.06,161.59c1.35,4.52,2.1,9.3,2.1,14.25c0,4.95-0.75,9.73-2.1,14.25h205.51v-28.5H469.06z"/>
		<path class="st0" d="M241.11,161.59c1.35,4.52,2.1,9.3,2.1,14.25c0,4.95-0.75,9.73-2.1,14.25h18.63c-1.35-4.52-2.1-9.29-2.1-14.25
			c0-4.95,0.75-9.73,2.1-14.25H241.11z"/>
		<path class="st0" d="M373.72,190.09c-1.35-4.52-2.1-9.29-2.1-14.25c0-4.95,0.75-9.73,2.1-14.25h-18.64
			c1.35,4.52,2.1,9.3,2.1,14.25c0,4.95-0.75,9.73-2.1,14.25H373.72z"/>
		<path class="st0" d="M143.65,175.84c0-4.95,0.75-9.73,2.1-14.25h-18.52v28.5h18.52C144.4,185.57,143.65,180.79,143.65,175.84z"/>
	</g>
	<g>
		<path class="st0" d="M465.32,340.86c-1.35-4.52-2.1-9.29-2.1-14.25s0.75-9.73,2.1-14.25h-18.63c1.35,4.52,2.1,9.29,2.1,14.25
			s-0.75,9.73-2.1,14.25H465.32z"/>
		<path class="st0" d="M332.71,312.37c1.35,4.52,2.1,9.29,2.1,14.25s-0.75,9.73-2.1,14.25h18.63c-1.35-4.52-2.1-9.29-2.1-14.25
			s0.75-9.73,2.1-14.25H332.71z"/>
		<path class="st0" d="M235.26,326.61c0-4.95,0.75-9.73,2.1-14.25H127.23v28.49h110.12C236,336.34,235.26,331.57,235.26,326.61z"/>
		<path class="st0" d="M560.66,312.37c1.35,4.52,2.1,9.29,2.1,14.25s-0.75,9.73-2.1,14.25h113.91v-28.49H560.66z"/>
	</g>
	<g>
		<path class="st0" d="M373.72,491.63c-1.35-4.52-2.1-9.29-2.1-14.24c0-4.95,0.75-9.71,2.1-14.23h-18.62
			c1.35,4.51,2.1,9.28,2.1,14.23c0,4.95-0.75,9.73-2.1,14.24H373.72z"/>
		<path class="st0" d="M241.12,463.16c1.35,4.51,2.1,9.28,2.1,14.23c0,4.95-0.75,9.73-2.1,14.24h18.62
			c-1.35-4.52-2.1-9.29-2.1-14.24c0-4.95,0.75-9.71,2.1-14.23H241.12z"/>
		<path class="st0" d="M143.65,477.39c0-4.95,0.75-9.71,2.1-14.23h-18.51v28.47h18.52C144.4,487.11,143.65,482.34,143.65,477.39z"/>
		<path class="st0" d="M469.06,463.16c1.35,4.51,2.1,9.28,2.1,14.23c0,4.95-0.75,9.73-2.1,14.24h205.51v-28.47H469.06z"/>
	</g>
	<g>
		<path class="st0" d="M553.67,642.41c-1.35-4.51-2.1-9.28-2.1-14.23c0-4.95,0.75-9.73,2.1-14.25h-18.63
			c1.35,4.52,2.1,9.3,2.1,14.25c0,4.95-0.75,9.71-2.1,14.23H553.67z"/>
		<path class="st0" d="M421.07,613.93c1.36,4.52,2.1,9.3,2.1,14.25c0,4.95-0.75,9.71-2.1,14.23h18.62c-1.35-4.51-2.1-9.28-2.1-14.23
			c0-4.95,0.75-9.73,2.1-14.25H421.07z"/>
		<path class="st0" d="M649.02,613.93c1.35,4.52,2.1,9.3,2.1,14.25c0,4.95-0.75,9.71-2.1,14.23h25.54v-28.48H649.02z"/>
		<path class="st0" d="M323.62,628.18c0-4.95,0.75-9.73,2.1-14.25H127.23v28.48h198.48C324.37,637.89,323.62,633.13,323.62,628.18z"
			/>
	</g>
</g>
</svg>
