<?xml version="1.0" encoding="UTF-8" standalone="no"?>
<!DOCTYPE svg PUBLIC "-//W3C//DTD SVG 1.1//EN" "http://www.w3.org/Graphics/SVG/1.1/DTD/svg11.dtd">
<svg width="100%" height="100%" viewBox="0 0 32 32" version="1.1" xmlns="http://www.w3.org/2000/svg" xmlns:xlink="http://www.w3.org/1999/xlink" xml:space="preserve" xmlns:serif="http://www.serif.com/" style="fill-rule:evenodd;clip-rule:evenodd;stroke-linejoin:round;stroke-miterlimit:1.41421;">
    <path d="M21.875,28.531C21.833,29.073 21.604,29.542 21.187,29.937C20.77,30.332 20.291,30.53 19.749,30.531L9.999,30.531C9.936,30.531 9.884,30.51 9.843,30.468C9.802,30.426 9.781,30.374 9.78,30.312L8.717,11.531C8.696,11.198 8.738,10.87 8.842,10.547C8.946,10.224 9.113,9.948 9.342,9.719C9.509,9.532 9.701,9.375 9.92,9.25C10.139,9.125 10.373,9.031 10.623,8.969L11.436,26.438L20.03,26.438L20.686,7.625L11.686,7.625L11.592,5.531C11.592,4.968 11.748,4.51 12.061,4.156C12.374,3.802 12.78,3.625 13.28,3.625L15.343,3.625L15.343,1.469L20.156,1.469L20.156,3.625L23.094,3.625C23.157,3.625 23.204,3.641 23.235,3.672C23.266,3.703 23.292,3.75 23.313,3.813L21.875,28.532L21.875,28.531ZM11.781,8.781L19.5,8.781L19.281,14.406L12.031,14.406L11.781,8.781ZM23.094,2.281L21.5,2.281L21.5,0.125L14,0.125L14,2.313L13.281,2.313C12.427,2.313 11.708,2.62 11.125,3.235C10.542,3.85 10.25,4.615 10.25,5.532L10.344,7.657C9.969,7.74 9.614,7.881 9.281,8.079C8.948,8.277 8.646,8.522 8.375,8.813C8.021,9.188 7.761,9.615 7.594,10.094C7.427,10.573 7.354,11.073 7.375,11.594L8.469,30.344C8.469,30.761 8.62,31.12 8.922,31.422C9.224,31.724 9.583,31.875 10,31.875L19.75,31.875C20.646,31.875 21.432,31.557 22.109,30.922C22.786,30.287 23.145,29.521 23.187,28.625L24.625,3.844L24.625,3.813C24.625,3.396 24.479,3.037 24.187,2.735C23.895,2.433 23.53,2.282 23.093,2.282L23.094,2.281Z" style="fill:white;fill-rule:nonzero;"/>
</svg>
