<!-- Generated by IcoMoon.io -->
<svg version="1.1" xmlns="http://www.w3.org/2000/svg" width="1024" height="1024" viewBox="0 0 1024 1024">
  <title></title>
  <style>
    .path {
    fill: #5C2D91;
    }
  </style>
  <g id="icomoon-ignore">
  </g>
  <path class="path"
        d="M1022 391v-51h-128v-195q0-12-8.5-20.5t-21.5-8.5h-180v-114h-51v114h-58v-114h-50v114h-58v-114h-50v114h-58v-114h-51v114h-39q-34 0-61 10.5t-47 30.5q-33 33-38.5 70.5t-5.5 39.5v0 0l2 73h-117v51h118l1 58h-119v50h120l1 58h-121v50h123l1 58h-124v51h125l1 33q0 6 6 42t37 67q20 20 47 30.5t61 10.5h29v123h51v-123h58v123h50v-123h58v123h50v-124h58v124h51v-124h31q4 0 16-2.5t23-14.5q10-10 14.5-24.5t3.5-32.5v-48h57q6 0 22.5-2.5t30.5-17.5q5-6 9.5-16t4.5-24h126v-51h-127v-58h127v-50h-128v-58h128v-50h-128v-58h128zM722 721h-425l-9-431h439l-5 431zM838 717h-65l5-478h-541l10 533h467v54q0 6-0.5 9.5t-0.5 4.5h-434q-29 0-49-10.5t-31-31.5q-10-18-11.5-33.5l-1.5-15.5v-1l-10-482q0-2 3.5-25.5t23.5-42.5q11-12 27.5-17.5t38.5-5.5h566l1 524q0 1 0.5 2.5t0.5 3.5q1 5 1 8v4z"></path>
</svg>
