<?xml version="1.0" encoding="UTF-8" standalone="no"?>
<!DOCTYPE svg PUBLIC "-//W3C//DTD SVG 1.1//EN" "http://www.w3.org/Graphics/SVG/1.1/DTD/svg11.dtd">
<svg width="100%" height="100%" viewBox="0 0 64 80" version="1.1" xmlns="http://www.w3.org/2000/svg" xmlns:xlink="http://www.w3.org/1999/xlink" xml:space="preserve" xmlns:serif="http://www.serif.com/" style="fill-rule:evenodd;clip-rule:evenodd;stroke-linejoin:round;stroke-miterlimit:1.41421;">
    <g transform="matrix(1,0,0,1,-0.0439402,6.35821)">
        <path d="M59,53.7L59,4C59,2.354 57.646,1 56,1C54.354,1 53,2.354 53,4L53,9L46,9L46,8.5C46.009,7.568 45.649,6.669 45,6C44.341,5.337 43.444,4.964 42.51,4.964C40.584,4.964 39,6.548 39,8.474L39,9L11,9L11,4C11,2.354 9.646,1 8,1C6.354,1 5,2.354 5,4L5,53.7C2.569,54.853 1.009,57.31 1,60C1,61.646 2.354,63 4,63L60,63C61.646,63 63,61.646 63,60C62.991,57.31 61.431,54.853 59,53.7ZM55,4C55,3.451 55.451,3 56,3C56.549,3 57,3.451 57,4L57,53.07C56.669,53.022 56.335,52.999 56,53L55,53L55,4ZM11,53L11,48L19,48C19.549,48 20,47.549 20,47L20,45.5C20.001,44.678 20.678,44.001 21.5,44.001C21.897,44.001 22.279,44.159 22.56,44.44C22.843,44.72 23.002,45.102 23,45.5L23,48.5C23,49.323 22.323,50 21.5,50C21.175,50.003 20.858,49.897 20.6,49.7C20.427,49.57 20.216,49.5 20,49.5C19.451,49.5 19,49.951 19,50.5C19,50.815 19.148,51.111 19.4,51.3C20.005,51.756 20.742,52.002 21.5,52C23.42,52 25,50.42 25,48.5L25,48L53,48L53,53L11,53ZM32.5,33C33.258,33.002 33.995,32.756 34.6,32.3C34.852,32.111 35,31.815 35,31.5C35,30.951 34.549,30.5 34,30.5C33.784,30.5 33.573,30.57 33.4,30.7C33.142,30.897 32.825,31.003 32.5,31C31.677,31 31,30.323 31,29.5L31,26.5C31.001,25.678 31.678,25.001 32.5,25.001C32.897,25.001 33.279,25.159 33.56,25.44C33.843,25.72 34.002,26.102 34,26.5L34,28C34,28.549 34.451,29 35,29L53,29L53,36L48,36L48,35.5C48.009,34.568 47.649,33.669 47,33C46.341,32.337 45.444,31.964 44.51,31.964C42.584,31.964 41,33.548 41,35.474L41,36L32,36C31.451,36 31,36.451 31,37C31,37.549 31.451,38 32,38L41,38L41,38.5C41,40.42 42.58,42 44.5,42C46.42,42 48,40.42 48,38.5L48,38L53,38L53,46L25,46L25,45.5C25.009,44.568 24.649,43.669 24,43C23.341,42.337 22.444,41.964 21.51,41.964C19.584,41.964 18,43.548 18,45.474L18,46L11,46L11,38L24,38C24.549,38 25,37.549 25,37C25,36.451 24.549,36 24,36L11,36L11,29L29,29L29,29.5C29,31.42 30.58,33 32.5,33ZM43,35.5C43.001,34.678 43.678,34.001 44.5,34.001C44.897,34.001 45.279,34.159 45.56,34.44C45.843,34.72 46.002,35.102 46,35.5L46,38.5C46,39.323 45.323,40 44.5,40C43.677,40 43,39.323 43,38.5L43,35.5ZM40,11C40.549,11 41,10.549 41,10L41,8.5C41.001,7.678 41.678,7.001 42.5,7.001C42.897,7.001 43.279,7.159 43.56,7.44C43.843,7.72 44.002,8.102 44,8.5L44,11.5C44,12.323 43.323,13 42.5,13C42.028,13 41.583,12.777 41.3,12.4C41.111,12.148 40.815,12 40.5,12C39.951,12 39.5,12.451 39.5,13C39.5,13.216 39.57,13.427 39.7,13.6C40.36,14.481 41.399,15 42.5,15C44.42,15 46,13.42 46,11.5L46,11L53,11L53,18L33,18C32.451,18 32,18.451 32,19C32,19.549 32.451,20 33,20L53,20L53,27L36,27L36,26.5C36.009,25.568 35.649,24.669 35,24C34.341,23.337 33.444,22.964 32.51,22.964C30.584,22.964 29,24.548 29,26.474L29,27L11,27L11,20L14,20L14,20.5C14,22.42 15.58,24 17.5,24C19.42,24 21,22.42 21,20.5L21,20L25,20C25.549,20 26,19.549 26,19C26,18.451 25.549,18 25,18L21,18L21,17.5C21.009,16.568 20.649,15.669 20,15C19.341,14.337 18.444,13.964 17.51,13.964C15.584,13.964 14,15.548 14,17.474L14,18L11,18L11,11L40,11ZM19,20.5C19,21.323 18.323,22 17.5,22C16.677,22 16,21.323 16,20.5L16,17.5C16.001,16.678 16.678,16.001 17.5,16.001C17.897,16.001 18.279,16.159 18.56,16.44C18.843,16.72 19.002,17.102 19,17.5L19,20.5ZM7,4C7,3.451 7.451,3 8,3C8.549,3 9,3.451 9,4L9,53L8,53C7.665,52.999 7.331,53.022 7,53.07L7,4ZM60,61L4,61C3.451,61 3,60.549 3,60C2.998,57.882 4.342,55.983 6.34,55.28C6.873,55.092 7.435,54.997 8,55L56,55C58.743,55 61,57.257 61,60C61,60.549 60.549,61 60,61Z" style="fill:rgb(92,45,145);fill-rule:nonzero;"/>
    </g>
</svg>
