<?xml version="1.0" encoding="UTF-8" standalone="no"?>
<!DOCTYPE svg PUBLIC "-//W3C//DTD SVG 1.1//EN" "http://www.w3.org/Graphics/SVG/1.1/DTD/svg11.dtd">
<svg width="100%" height="100%" viewBox="0 0 1024 1024" version="1.1" xmlns="http://www.w3.org/2000/svg" xmlns:xlink="http://www.w3.org/1999/xlink" xml:space="preserve" xmlns:serif="http://www.serif.com/" style="fill-rule:evenodd;clip-rule:evenodd;stroke-linejoin:round;stroke-miterlimit:1.41421;">
    <path d="M1022,391L1022,340L894,340L894,145C894,137 891.167,130.167 885.5,124.5C879.833,118.833 872.667,116 864,116L684,116L684,2L633,2L633,116L575,116L575,2L525,2L525,116L467,116L467,2L417,2L417,116L359,116L359,2L308,2L308,116L269,116C246.333,116 226,119.5 208,126.5C190,133.5 174.333,143.667 161,157C139,179 126.167,202.5 122.5,227.5C118.833,252.5 117,265.667 117,267L119,340L2,340L2,391L120,391L121,449L2,449L2,499L122,499L123,557L2,557L2,607L125,607L126,665L2,665L2,716L127,716L128,749C128,753 130,767 134,791C138,815 150.333,837.333 171,858C184.333,871.333 200,881.5 218,888.5C236,895.5 256.333,899 279,899L308,899L308,1022L359,1022L359,899L417,899L417,1022L467,1022L467,899L525,899L525,1022L575,1022L575,898L633,898L633,1022L684,1022L684,898L715,898C717.667,898 723,897.167 731,895.5C739,893.833 746.667,889 754,881C760.667,874.333 765.5,866.167 768.5,856.5C771.5,846.833 772.667,836 772,824L772,776L829,776C833,776 840.5,775.167 851.5,773.5C862.5,771.833 872.667,766 882,756C885.333,752 888.5,746.667 891.5,740C894.5,733.333 896,725.333 896,716L1022,716L1022,665L895,665L895,607L1022,607L1022,557L894,557L894,499L1022,499L1022,449L894,449L894,391L1022,391ZM722,721L297,721L288,290L727,290L722,721ZM838,717L773,717L778,239L237,239L247,772L714,772L714,826C714,830 713.833,833.167 713.5,835.5C713.167,837.833 713,839.333 713,840L279,840C259.667,840 243.333,836.5 230,829.5C216.667,822.5 206.333,812 199,798C192.333,786 188.5,774.833 187.5,764.5L186,749L186,748L176,266C176,264.667 177.167,256.167 179.5,240.5C181.833,224.833 189.667,210.667 203,198C210.333,190 219.5,184.167 230.5,180.5C241.5,176.833 254.333,175 269,175L835,175L836,699C836,699.667 836.167,700.5 836.5,701.5C836.833,702.5 837,703.667 837,705C837.667,708.333 838,711 838,713L838,717Z" style="fill:white;fill-rule:nonzero;"/>
</svg>
