<?xml version="1.0" encoding="UTF-8"?>
<svg width="56px" height="61px" viewBox="0 0 56 61" version="1.1" xmlns="http://www.w3.org/2000/svg" xmlns:xlink="http://www.w3.org/1999/xlink">
    <!-- Generator: Sketch Beta 50 (54800) - http://www.bohemiancoding.com/sketch -->
    <title>svgexport-0</title>
    <desc>Created with Sketch Beta.</desc>
    <defs></defs>
    <g id="designs" stroke="none" stroke-width="1" fill="none" fill-rule="evenodd">
        <g id="Home" transform="translate(-863.000000, -552.000000)" fill="#5c2d91" fill-rule="nonzero">
            <g id="Group-9" transform="translate(135.000000, 552.000000)">
                <g id="Group-17" transform="translate(371.000000, 0.000000)">
                    <g id="Group-15" transform="translate(341.000000, 0.000000)">
                        <g id="Group-8">
                            <g id="svgexport-0" transform="translate(16.000000, 0.000000)">
                                <path d="M25.8947815,61 C25.6836536,61 25.4725258,60.9460764 25.2613979,60.8382292 L19.4025999,57.7915455 C19.0595172,57.6028128 18.8219983,57.306233 18.6900434,56.9287678 C18.5844795,56.5513025 18.6372615,56.1468755 18.8219983,55.8233338 L25.4989168,43.7983697 L29.7742558,25.1947257 L28.7713985,25.572191 L25.7628266,35.0627456 C25.5253077,35.7907143 24.7863602,36.1951413 24.0738037,36.0064087 L18.0302689,34.3617387 C17.6607951,34.2538915 17.3441034,34.0112353 17.1857575,33.6876936 C17.0010206,33.364152 16.9482386,32.959725 17.0538026,32.5822597 L20.9332769,18.8856638 C21.0652318,18.454275 21.3819236,18.0768098 21.8305703,17.9420007 C21.9361342,17.8880771 31.6216245,14.4639282 36.3456103,12.6305256 C34.9468883,11.066741 33.3106474,8.53233153 33.7329031,5.56653321 C33.9704219,3.78705421 34.8413243,2.25023145 36.1872644,1.22568294 C37.4804225,0.255058033 39.1166634,-0.176330814 40.7792953,0.0663254127 C40.8056862,0.0663254127 40.8056862,0.0663254127 40.8320772,0.0663254127 C44.3684688,0.578599668 46.6644842,3.70616881 46.1630556,7.3460122 C45.7407998,10.4735813 43.2864385,12.4957166 41.4918518,13.5741887 C42.2307993,14.2751955 43.2336566,15.2458205 44.5532057,16.5130252 C46.4269654,18.319466 48.2743341,20.1259068 48.8549357,20.6921046 L55.1359894,23.3343613 C55.7957639,23.6039794 56.1652377,24.3858716 55.9277188,25.0868785 L53.9747862,31.4229022 C53.8692223,31.8003674 53.6053124,32.0969473 53.2622297,32.2856799 C52.9191469,32.4744125 52.5232822,32.4744125 52.1538084,32.3396035 L44.3948598,29.3738052 C44.2101229,29.2929198 44.025386,29.1850726 43.8934311,29.0502635 L42.1252353,27.2438228 L40.8320772,32.5013743 L49.0132816,42.396356 C49.1716275,42.5850886 49.2771914,42.800783 49.3035824,43.0164775 L52.1274175,56.6861115 C52.2065904,57.0635768 52.1274175,57.4680038 51.9162896,57.7915455 C51.7051617,58.1150871 51.362079,58.3307815 50.9926052,58.3847051 L44.5004237,59.5171008 C43.7614762,59.6519099 43.0489197,59.1396356 42.8905738,58.3847051 L40.5681674,46.7102445 L35.8177907,41.3448457 L34.5774145,46.4675882 C34.5510235,46.5754354 34.4982416,46.7102445 34.4454596,46.8180917 L27.1351576,60.3259549 C26.8448568,60.730382 26.3698192,61 25.8947815,61 Z M21.9625252,55.9311811 L25.3141799,57.6836982 L31.8855344,45.5508869 L33.7329031,38.0285439 C33.864858,37.5162697 34.2607227,37.1118426 34.7621514,36.9770336 C35.26358,36.8422246 35.7913997,37.0039954 36.1344824,37.4084224 L42.8905738,45.0386127 C43.0489197,45.2273453 43.1808746,45.4700015 43.2336566,45.7126577 L45.3713261,56.4164935 L49.0924545,55.7694102 L46.6380932,43.906217 L38.21937,33.7416173 C37.9290692,33.3911138 37.8235053,32.9058014 37.9290692,32.4744125 L40.0139568,24.0892918 C40.1459117,23.6039794 40.5153854,23.1995523 40.9904231,23.0647433 C41.4654608,22.9299343 41.9932804,23.0647433 42.3627542,23.4422085 L45.6352359,26.8124339 L51.7315527,29.1581108 L52.8663649,25.4913056 L47.5353866,23.2534759 C47.3770407,23.1995523 47.2186948,23.0917051 47.1131309,22.9568961 C44.3684688,20.2876776 40.1195207,16.1625218 38.6680167,14.7874698 C35.1316251,16.2164454 26.0531274,19.4788235 23.4404202,20.4224866 L20.1415474,32.0160619 L23.5195931,32.9327632 L26.2906462,24.06233 C26.4226011,23.6309412 26.7392929,23.3073995 27.1351576,23.1456287 L31.2257598,21.5818441 C31.7007975,21.3931115 32.2550081,21.5009587 32.6244819,21.8514622 C33.0203466,22.2019656 33.1786925,22.7412017 33.0467376,23.2534759 L28.1380149,44.6341856 C28.111624,44.7689946 28.058842,44.9038037 28.00606,45.0116509 L21.9625252,55.9311811 Z M39.8556109,2.81642931 C39.1166634,2.81642931 38.4041069,3.05908554 37.8235053,3.49047438 C37.0845578,4.05667224 36.6095201,4.89248813 36.4775652,5.91703665 C36.1344824,8.34359891 38.166588,10.5544667 39.2222273,11.4981298 C40.4889945,10.8780084 43.0225287,9.31422381 43.3656115,6.88766155 C43.6559123,4.83856453 42.4155361,3.13997094 40.4362125,2.84339111 C40.4362125,2.84339111 40.4098215,2.84339111 40.4098215,2.84339111 C40.1986937,2.84339111 40.0403478,2.81642931 39.8556109,2.81642931 Z" id="Shape"></path>
                                <path d="M3.89354622,59.1823591 C1.96910647,54.3162516 1.86913557,48.7120266 3.61862626,43.7639061 C3.8685535,43.1078017 3.56864081,42.3423466 2.94382271,42.0963074 C2.34399733,41.8229306 1.64420105,42.1509828 1.41926654,42.8344248 C-0.580151391,48.4113121 -0.45518777,54.7263168 1.71917923,60.2211911 C1.94411374,60.7679447 2.46896095,61.0686592 2.96881543,60.9866462 C3.06878633,60.9593085 3.16875722,60.9319708 3.26872812,60.9046331 C3.89354622,60.6039186 4.16846619,59.8384635 3.89354622,59.1823591" id="Shape"></path>
                                <path d="M2.80056556,61 C2.33438881,61 1.89274768,60.700267 1.69646274,60.2097948 C-0.462671656,54.7328555 -0.560814129,48.411214 1.40203532,42.8525293 C1.52471341,42.5255479 1.74553398,42.2530633 2.03996139,42.116821 C2.33438881,41.9805788 2.65335185,41.9533303 2.94777926,42.0895726 C3.24220668,42.2258149 3.48756286,42.4710509 3.61024095,42.7980324 C3.73291905,43.1250139 3.73291905,43.4792438 3.63477657,43.8062252 C1.9172833,48.710947 1.99089016,54.2968802 3.90466837,59.1471051 C4.02734646,59.4740865 4.02734646,59.8283165 3.92920399,60.1552979 C3.8065259,60.4822794 3.58570534,60.7547639 3.29127792,60.8910062 C3.19313545,60.9455031 3.09499297,60.9727515 2.9968505,61 C2.92324365,61 2.84963679,61 2.80056556,61 Z M2.50613814,42.0895726 C2.35892443,42.0895726 2.21171072,42.116821 2.06449701,42.1985664 C1.79460521,42.3348087 1.57378465,42.5800448 1.47564218,42.8797778 C-0.487207274,48.411214 -0.364529184,54.7328555 1.77006959,60.1825464 C1.96635454,60.700267 2.4570669,61 2.97231488,60.9182546 C3.07045736,60.8910062 3.16859983,60.8637577 3.2667423,60.8365093 C3.5366341,60.700267 3.75745466,60.4550309 3.85559714,60.1552979 C3.95373961,59.8555649 3.95373961,59.501335 3.83106152,59.201602 C1.9172833,54.3513771 1.81914083,48.7381955 3.56116972,43.8062252 C3.65931219,43.5064922 3.65931219,43.1522623 3.5366341,42.8525293 C3.41395601,42.5527963 3.19313545,42.3075602 2.92324365,42.1985664 C2.80056556,42.116821 2.65335185,42.0895726 2.50613814,42.0895726 Z" id="Shape"></path>
                                <path d="M9.89542579,56.2198006 C8.36403391,52.8997557 8.27895658,49.0709942 9.66855292,45.7241747 C9.952144,45.0815854 9.6118347,44.3318978 8.90285698,44.0909268 C8.22223836,43.8231812 7.42818332,44.1712505 7.17295134,44.8138398 C5.52812303,48.8032486 5.61320035,53.3281486 7.42818332,57.2372337 C7.6834153,57.7727248 8.27895658,58.0672449 8.84613876,57.9869213 C8.95957519,57.9601467 9.07301163,57.9333722 9.18644807,57.9065976 C9.86706668,57.5853029 10.1790169,56.8623899 9.89542579,56.2198006" id="Shape"></path>
                                <path d="M8.64438788,58 C8.11751053,58 7.61836357,57.7072114 7.39652047,57.2281029 C5.62177571,53.315383 5.53858455,48.7904688 7.14694699,44.8245147 C7.42425086,44.1590861 8.20070169,43.8396804 8.89396137,44.0792347 C9.58722104,44.3454061 9.91998568,45.0906861 9.6704122,45.7561146 C8.31162324,49.0832574 8.3948144,52.8895087 9.8922553,56.1634172 C10.0309072,56.4828229 10.0309072,56.8288457 9.91998568,57.1482515 C9.78133375,57.4676572 9.53176027,57.7338286 9.19899562,57.8669143 C9.08807407,57.9201486 8.97715253,57.9467657 8.86623098,57.9733829 C8.78303982,58 8.72757904,58 8.64438788,58 Z M8.42254479,44.0792347 C7.92339782,44.0792347 7.42425086,44.3720232 7.23013815,44.8511318 C5.62177571,48.7904688 5.70496687,53.2887658 7.47971163,57.1748686 C7.70155473,57.6805943 8.25616247,57.9733829 8.83850059,57.8935314 C8.94942214,57.8669143 9.06034369,57.8402971 9.17126523,57.81368 C9.47629949,57.6805943 9.72587297,57.44104 9.83679452,57.1482515 C9.94771607,56.8554629 9.94771607,56.50944 9.80906413,56.2166515 C8.31162324,52.9161259 8.22843208,49.1098745 9.58722104,45.7561146 C9.83679452,45.1439204 9.53176027,44.4252575 8.86623098,44.1857033 C8.72757904,44.1058518 8.58892711,44.0792347 8.42254479,44.0792347 Z" id="Shape"></path>
                                <path d="M14.9054779,54.2974791 C14.1688379,52.5050412 14.1197286,50.4565408 14.8072592,48.6384967 C15.0282512,48.0239466 14.7335952,47.3069714 14.1442833,47.0765151 C13.5549713,46.8460588 12.8674407,47.1533339 12.6464488,47.767884 C11.7379262,50.174872 11.7870355,52.9147413 12.7937767,55.2705168 C13.0147687,55.7826419 13.5304167,56.0643107 14.02151,55.987492 C14.1197286,55.9618857 14.2179473,55.9362794 14.3161659,55.9106732 C14.9054779,55.6290044 15.1510245,54.9120292 14.9054779,54.2974791" id="Shape"></path>
                                <path d="M13.8461212,56 C13.3904282,56 12.9587191,55.7203207 12.7668484,55.2626636 C11.8074948,52.8981021 11.7355433,50.177585 12.6229454,47.7875981 C12.8627838,47.1519632 13.5343313,46.8468585 14.1339273,47.075687 C14.4217334,47.202814 14.6615718,47.4316426 14.781491,47.7367473 C14.9014102,48.041852 14.925394,48.3723821 14.8054748,48.6774868 C14.1579111,50.4572643 14.181895,52.5167212 14.9014102,54.2710733 C15.1652324,54.9067081 14.8774263,55.6186191 14.3018142,55.8982984 C14.2058788,55.9491492 14.1099434,55.9745746 14.0140081,56 C13.9420566,56 13.8940889,56 13.8461212,56 Z M13.726202,47.0502617 C13.2944929,47.0502617 12.8627838,47.329941 12.6948969,47.7875981 C11.8314786,50.1521596 11.8794463,52.8726767 12.8387999,55.2118128 C13.0306706,55.6948953 13.5103474,55.9745746 14.0140081,55.8982984 C14.1099434,55.872873 14.2058788,55.8474476 14.3018142,55.8220222 C14.8534425,55.5677683 15.1172647,54.8812827 14.8774263,54.2964987 C14.1339273,52.5167212 14.1099434,50.4572643 14.781491,48.6520614 C14.8774263,48.3723821 14.8774263,48.041852 14.7575071,47.7621727 C14.6375879,47.4824933 14.4217334,47.2536648 14.1579111,47.1519632 C13.9900242,47.075687 13.8461212,47.0502617 13.726202,47.0502617 Z" id="Shape"></path>
                            </g>
                        </g>
                    </g>
                </g>
            </g>
        </g>
    </g>
</svg>
