<?xml version="1.0" encoding="UTF-8" standalone="no"?>
<!DOCTYPE svg PUBLIC "-//W3C//DTD SVG 1.1//EN" "http://www.w3.org/Graphics/SVG/1.1/DTD/svg11.dtd">
<svg width="100%" height="100%" viewBox="0 0 464 464" version="1.1" xmlns="http://www.w3.org/2000/svg" xmlns:xlink="http://www.w3.org/1999/xlink" xml:space="preserve" xmlns:serif="http://www.serif.com/" style="fill-rule:evenodd;clip-rule:evenodd;stroke-linejoin:round;stroke-miterlimit:1.41421;">
    <g>
        <path d="M236.234,300.093C242.758,300.093 247.685,297.81 251.297,293.114C255.013,288.284 256.897,281.873 256.897,274.059L256.897,254.793C256.897,247.131 254.992,240.797 251.233,235.968C247.573,231.264 242.643,228.978 236.162,228.978C229.697,228.978 224.847,231.243 221.333,235.901C217.704,240.713 215.864,247.069 215.864,254.794L215.864,274.06C215.864,281.879 217.727,288.294 221.401,293.126C224.961,297.813 229.814,300.093 236.234,300.093Z" style="fill:white;fill-rule:nonzero;"/>
        <path d="M400.444,220.561C403.765,210.053 405.445,199.139 405.445,188.038C405.445,128.503 357.01,80.068 297.476,80.068C261.366,80.068 227.366,98.48 207.47,128.462C192.172,117.539 173.673,111.576 154.803,111.576C104.825,111.576 64.165,152.236 64.165,202.215C64.165,208.14 64.74,214.039 65.877,219.817C27.97,227.549 0,261.358 0,300.538C0,345.976 36.966,382.942 82.403,382.942L380.608,382.942C426.045,382.942 463.01,345.975 463.01,300.538C463.01,262.331 437.021,229.555 400.444,220.561ZM175.683,247.879L174.848,250.392L149.859,250.392L149.859,247.892C149.859,241.57 148.385,236.73 145.477,233.505C142.636,230.356 137.992,228.759 131.673,228.759C126.111,228.759 121.818,230.956 118.548,235.476C115.141,240.182 113.414,246.335 113.414,253.766L113.414,274.941C113.414,282.445 115.227,288.631 118.803,293.329C122.267,297.881 126.834,300.094 132.765,300.094C138.641,300.094 142.976,298.574 145.648,295.576C148.393,292.496 149.785,287.7 149.785,281.325L149.785,278.825L174.7,278.825L175.537,281.336L175.543,281.72C175.748,293.815 171.965,303.583 164.299,310.755C156.691,317.873 146.081,321.482 132.764,321.482C119.349,321.482 108.282,317.086 99.868,308.414C91.473,299.766 87.217,288.519 87.217,274.989L87.217,253.939C87.217,240.474 91.366,229.237 99.55,220.542C107.776,211.803 118.583,207.372 131.672,207.372C145.362,207.372 156.27,210.985 164.092,218.112C171.992,225.311 175.893,235.198 175.688,247.498L175.683,247.879ZM283.166,273.968C283.166,287.592 278.775,299.033 270.115,307.974C261.434,316.937 250.036,321.481 236.234,321.481C222.525,321.481 211.209,316.934 202.601,307.966C194.019,299.027 189.667,287.588 189.667,273.968L189.667,254.884C189.667,241.315 194.004,229.89 202.559,220.927C211.145,211.932 222.45,207.37 236.161,207.37C249.96,207.37 261.372,211.927 270.079,220.914C278.763,229.88 283.166,241.309 283.166,254.884L283.166,273.968ZM376.656,319.951L299.256,319.951L299.256,302.554L334.235,265.051C338.985,259.601 342.43,254.918 344.42,251.194C346.303,247.669 347.257,244.401 347.257,241.482C347.257,237.589 346.271,234.532 344.243,232.134C342.32,229.863 339.597,228.759 335.918,228.759C331.799,228.759 328.791,230.071 326.721,232.77C324.528,235.633 323.414,239.594 323.414,244.541L323.414,247.041L298.429,247.041L297.592,244.542L297.582,244.167C297.322,233.942 300.737,225.157 307.734,218.058C314.721,210.966 324.204,207.37 335.918,207.37C347.435,207.37 356.663,210.457 363.349,216.544C370.102,222.693 373.526,230.961 373.526,241.117C373.526,247.988 371.614,254.414 367.841,260.216C364.258,265.727 358.302,273.006 350.137,281.854L334.791,298.563L376.657,298.563L376.657,319.951L376.656,319.951Z" style="fill:white;fill-rule:nonzero;"/>
    </g>
</svg>
