<?xml version="1.0" encoding="UTF-8" standalone="no"?>
<!DOCTYPE svg PUBLIC "-//W3C//DTD SVG 1.1//EN" "http://www.w3.org/Graphics/SVG/1.1/DTD/svg11.dtd">
<svg width="100%" height="100%" viewBox="0 0 100 100" version="1.1" xmlns="http://www.w3.org/2000/svg" xmlns:xlink="http://www.w3.org/1999/xlink" xml:space="preserve" xmlns:serif="http://www.serif.com/" style="fill-rule:evenodd;clip-rule:evenodd;stroke-linejoin:round;stroke-miterlimit:1.41421;">
    <g>
        <g transform="matrix(1,0,0,1,-10,6)">
            <path d="M84,37.6C83.1,36.3 81.4,36.1 80.2,37.1C79.3,37.9 79.1,39.4 79.8,40.4C81.7,43.1 82.8,46.4 82.8,49.9C82.8,53.4 81.7,56.7 79.8,59.4C79.1,60.4 79.3,61.8 80.2,62.7C81.4,63.8 83.1,63.6 84,62.2C86.4,58.7 87.8,54.4 87.8,49.8C87.8,45.4 86.4,41.2 84,37.6Z" style="fill:rgb(92,45,145);fill-rule:nonzero;"/>
            <path d="M91.4,31.8C90.5,30.6 88.8,30.5 87.7,31.5C86.7,32.4 86.6,33.9 87.4,34.9C90.6,39.1 92.4,44.4 92.4,50C92.4,55.7 90.5,60.9 87.4,65.1C86.6,66.2 86.7,67.6 87.7,68.5C88.8,69.5 90.5,69.4 91.4,68.2C95.2,63.1 97.5,56.8 97.5,50C97.5,43.2 95.2,36.8 91.4,31.8Z" style="fill:rgb(92,45,145);fill-rule:nonzero;"/>
        </g>
        <g transform="matrix(1,0,0,1,10,6)">
            <path d="M17.2,50C17.2,46.5 18.3,43.2 20.2,40.5C20.9,39.5 20.7,38.1 19.8,37.2C18.6,36.1 16.9,36.3 16,37.7C13.6,41.2 12.2,45.5 12.2,50.1C12.2,54.7 13.6,58.9 16,62.5C16.9,63.8 18.6,64 19.8,63C20.7,62.2 20.9,60.7 20.2,59.7C18.3,56.8 17.2,53.5 17.2,50Z" style="fill:rgb(92,45,145);fill-rule:nonzero;"/>
            <path d="M7.6,50C7.6,44.3 9.5,39.1 12.6,34.9C13.4,33.8 13.3,32.4 12.3,31.5L11.2,30.5C10.7,30.1 10,30.1 9.6,30.6C5.2,35.9 2.5,42.6 2.5,50C2.5,56.8 4.8,63.2 8.6,68.2C9.5,69.4 11.2,69.5 12.3,68.5C13.3,67.6 13.4,66.1 12.6,65.1C9.4,60.9 7.6,55.7 7.6,50Z" style="fill:rgb(92,45,145);fill-rule:nonzero;"/>
        </g>
    </g>
    <g transform="matrix(0.229635,0,0,0.229635,37.9494,5.52158)">
        <g transform="matrix(0.819171,0,0,0.819171,-157.23,-18.4744)">
            <path d="M297.762,53.025C290.524,45.271 280.696,41 270.089,41L241.911,41C231.304,41 221.477,45.27 214.239,53.024C207.002,60.778 203.417,70.876 204.147,81.458L218.236,285.751C219.599,305.517 236.187,321 256,321C275.813,321 292.4,305.517 293.764,285.751L307.853,81.458C308.583,70.876 304.999,60.779 297.762,53.025Z" style="fill:rgb(92,45,145);fill-rule:nonzero;"/>
        </g>
        <g transform="matrix(0.819171,0,0,0.819171,-157.23,-18.4744)">
            <path d="M256,381C231.187,381 211,401.187 211,426C211,450.813 231.187,471 256,471C280.813,471 301,450.813 301,426C301,401.187 280.813,381 256,381Z" style="fill:rgb(92,45,145);fill-rule:nonzero;"/>
        </g>
    </g>
</svg>
