<?xml version="1.0" encoding="UTF-8" standalone="no"?>
<!DOCTYPE svg PUBLIC "-//W3C//DTD SVG 1.1//EN" "http://www.w3.org/Graphics/SVG/1.1/DTD/svg11.dtd">
<svg width="100%" height="100%" viewBox="0 0 32 32" version="1.1" xmlns="http://www.w3.org/2000/svg" xmlns:xlink="http://www.w3.org/1999/xlink" xml:space="preserve" xmlns:serif="http://www.serif.com/" style="fill-rule:evenodd;clip-rule:evenodd;stroke-linejoin:round;stroke-miterlimit:1.41421;">
    <path d="M8.313,13.719C8.063,13.719 7.849,13.802 7.672,13.969C7.495,14.136 7.406,14.344 7.406,14.594C7.406,14.74 7.495,15.006 7.672,15.391C7.849,15.776 8.063,16.177 8.313,16.594C8.584,16.157 8.802,15.75 8.969,15.375C9.136,15 9.219,14.739 9.219,14.594C9.219,14.344 9.13,14.136 8.953,13.969C8.776,13.802 8.562,13.719 8.312,13.719L8.313,13.719ZM16,30.125C15.917,30.125 15.839,30.115 15.766,30.094C15.693,30.073 15.626,30.032 15.563,29.969C15.542,29.969 15.261,29.75 14.719,29.313C14.177,28.896 13.479,28.323 12.625,27.594C11.771,26.865 10.813,26.021 9.75,25.063C8.687,24.084 7.635,23.042 6.594,21.938C6.511,21.834 6.417,21.73 6.313,21.625C6.209,21.52 6.115,21.416 6.032,21.312C5.969,21.249 5.922,21.171 5.891,21.078C5.86,20.985 5.844,20.896 5.844,20.812C5.844,20.728 5.854,20.655 5.875,20.593L5.938,20.405L7.469,17.999C7.198,17.562 6.881,16.994 6.516,16.296C6.151,15.598 5.969,15.03 5.969,14.593C5.969,13.947 6.198,13.395 6.657,12.937C7.116,12.479 7.668,12.25 8.313,12.249C8.958,12.248 9.51,12.478 9.969,12.937C10.428,13.396 10.657,13.948 10.657,14.593C10.657,15.052 10.459,15.661 10.063,16.421C9.667,17.181 9.334,17.759 9.063,18.155L9.532,18.874L13.095,18.874C13.324,18.874 13.475,18.801 13.548,18.655C13.621,18.509 13.668,18.426 13.689,18.405L14.97,12.874C15.012,12.707 15.101,12.572 15.236,12.468C15.371,12.364 15.522,12.312 15.689,12.312C15.876,12.312 16.033,12.369 16.158,12.484C16.283,12.599 16.356,12.739 16.377,12.906L17.283,18.562L18.627,9.749C18.669,9.582 18.752,9.442 18.877,9.327C19.002,9.212 19.148,9.145 19.315,9.124C19.502,9.124 19.664,9.176 19.799,9.28C19.934,9.384 20.023,9.519 20.065,9.686L21.378,15.436L22.159,13.998C22.222,13.873 22.31,13.779 22.425,13.717C22.54,13.655 22.67,13.624 22.816,13.623L26.097,13.623C26.284,13.623 26.451,13.696 26.597,13.842C26.743,13.988 26.816,14.155 26.816,14.342C26.816,14.551 26.743,14.723 26.597,14.858C26.451,14.993 26.284,15.061 26.097,15.061L23.222,15.061L21.722,17.78C21.659,17.905 21.56,18.004 21.425,18.077C21.29,18.15 21.149,18.176 21.003,18.155C20.857,18.134 20.727,18.072 20.612,17.967C20.497,17.862 20.419,17.737 20.378,17.592L19.503,13.686L18.003,23.342C17.982,23.509 17.904,23.649 17.769,23.764C17.634,23.879 17.472,23.936 17.285,23.936C17.118,23.936 16.967,23.879 16.832,23.764C16.697,23.649 16.608,23.509 16.566,23.342L15.535,16.779L15.097,18.717L15.097,18.748C15.014,19.019 14.816,19.347 14.503,19.732C14.19,20.117 13.722,20.31 13.097,20.31L9.159,20.31C9.034,20.31 8.919,20.279 8.815,20.216C8.711,20.153 8.617,20.08 8.534,19.997L8.221,19.497L7.44,20.716L7.659,20.935C8.492,21.831 9.336,22.685 10.19,23.498C11.044,24.29 11.851,25.019 12.612,25.686C13.373,26.353 14.045,26.926 14.628,27.405C15.232,27.884 15.69,28.249 16.003,28.499C16.274,28.27 16.659,27.957 17.159,27.561C17.659,27.165 18.227,26.691 18.862,26.139C19.497,25.587 20.18,24.978 20.909,24.311C21.638,23.644 22.378,22.936 23.128,22.186C24.357,20.977 25.43,19.811 26.347,18.686C27.264,17.582 28.035,16.525 28.66,15.514C29.285,14.503 29.765,13.561 30.098,12.686C30.411,11.811 30.567,11.009 30.567,10.28C30.567,9.447 30.458,8.66 30.239,7.921C30.02,7.182 29.692,6.52 29.255,5.937C28.713,5.208 28.041,4.63 27.239,4.203C26.437,3.776 25.557,3.532 24.598,3.469C23.244,3.365 21.864,3.62 20.457,4.235C19.05,4.85 17.733,5.761 16.504,6.969C16.504,6.99 16.494,7.005 16.473,7.016C16.452,7.027 16.431,7.032 16.41,7.032L16.41,7.063C16.347,7.105 16.285,7.136 16.222,7.157C16.159,7.178 16.097,7.188 16.034,7.188C15.951,7.188 15.867,7.172 15.784,7.141C15.701,7.11 15.617,7.073 15.534,7.032L15.534,7.001L15.503,7.001L15.503,6.97C14.753,6.241 13.993,5.616 13.222,5.095C12.43,4.574 11.638,4.168 10.847,3.876C10.056,3.584 9.264,3.407 8.472,3.345C7.701,3.282 6.941,3.345 6.191,3.533C5.128,3.804 4.212,4.314 3.441,5.064C2.67,5.814 2.118,6.741 1.785,7.845C1.681,8.22 1.598,8.616 1.535,9.033C1.472,9.45 1.441,9.866 1.441,10.283C1.441,11.22 1.701,12.272 2.222,13.439C2.743,14.606 3.514,15.877 4.535,17.252C4.639,17.419 4.675,17.596 4.644,17.783C4.613,17.97 4.524,18.127 4.378,18.252C4.211,18.377 4.029,18.424 3.831,18.393C3.633,18.362 3.472,18.263 3.347,18.096C2.243,16.596 1.41,15.195 0.847,13.893C0.284,12.591 0.003,11.388 0.003,10.284C0.003,9.784 0.034,9.294 0.097,8.815C0.16,8.336 0.264,7.877 0.41,7.44C0.806,6.086 1.478,4.945 2.426,4.018C3.374,3.091 4.515,2.46 5.848,2.127C6.661,1.918 7.51,1.84 8.395,1.893C9.28,1.946 10.171,2.118 11.067,2.409C11.921,2.701 12.765,3.102 13.598,3.612C14.431,4.122 15.233,4.742 16.004,5.471C16.65,4.888 17.311,4.372 17.988,3.924C18.665,3.476 19.368,3.106 20.097,2.815C20.868,2.482 21.639,2.252 22.41,2.127C23.181,2.002 23.952,1.97 24.723,2.033C25.89,2.116 26.963,2.424 27.942,2.955C28.921,3.486 29.744,4.2 30.411,5.096C30.932,5.805 31.328,6.602 31.599,7.487C31.87,8.372 32.006,9.305 32.005,10.284C32.005,11.138 31.838,12.044 31.505,13.003C31.172,13.962 30.677,14.983 30.021,16.066C29.365,17.149 28.547,18.285 27.568,19.472C26.589,20.659 25.453,21.909 24.162,23.222C23.203,24.181 22.266,25.066 21.349,25.878C20.432,26.711 19.609,27.43 18.88,28.034C18.151,28.638 17.567,29.107 17.13,29.44L16.442,29.971C16.379,30.034 16.312,30.075 16.239,30.096C16.166,30.117 16.088,30.127 16.005,30.127L16,30.125Z" style="fill:rgb(92,45,145);fill-rule:nonzero;"/>
</svg>
