<?xml version="1.0" encoding="UTF-8" standalone="no"?>
<!DOCTYPE svg PUBLIC "-//W3C//DTD SVG 1.1//EN" "http://www.w3.org/Graphics/SVG/1.1/DTD/svg11.dtd">
<svg width="100%" height="100%" viewBox="0 0 50 63" version="1.1" xmlns="http://www.w3.org/2000/svg" xmlns:xlink="http://www.w3.org/1999/xlink" xml:space="preserve" xmlns:serif="http://www.serif.com/" style="fill-rule:evenodd;clip-rule:evenodd;stroke-linejoin:round;stroke-miterlimit:1.41421;">
    <g>
        <g transform="matrix(1,0,0,1,0,5)">
            <path d="M31.472,27.188L21.14,19.501C21.011,19.405 20.92,19.28 20.83,19.156L17.767,23.27C17.912,23.321 18.058,23.372 18.187,23.469L28.516,31.158C28.675,31.275 28.798,31.424 28.897,31.581L31.986,27.433C31.807,27.382 31.631,27.308 31.472,27.188Z" style="fill:rgb(92,45,145);fill-rule:nonzero;"/>
        </g>
        <g transform="matrix(1,0,0,1,0,5)">
            <path d="M26.656,33.661L16.324,25.973C16.195,25.876 16.104,25.75 16.013,25.627L13.146,29.479C13.291,29.529 13.438,29.58 13.567,29.676L23.897,37.364C24.056,37.482 24.178,37.631 24.278,37.789L27.169,33.904C26.99,33.854 26.814,33.778 26.656,33.661Z" style="fill:rgb(92,45,145);fill-rule:nonzero;"/>
        </g>
        <g transform="matrix(1,0,0,1,0,5)">
            <path d="M36.321,20.671L25.993,12.983C25.863,12.886 25.773,12.761 25.682,12.637L22.583,16.8C22.728,16.851 22.873,16.902 23.002,16.998L33.33,24.686C33.49,24.805 33.612,24.953 33.713,25.111L36.836,20.915C36.657,20.865 36.479,20.79 36.321,20.671Z" style="fill:rgb(92,45,145);fill-rule:nonzero;"/>
        </g>
        <g transform="matrix(1,0,0,1,0,5)">
            <path d="M43.408,0.268C42.807,-0.178 41.958,-0.055 41.512,0.545L34.938,9.377L34.893,9.343C32.554,7.603 29.273,8.046 27.455,10.291C27.592,10.341 27.73,10.388 27.853,10.479L38.182,18.168C38.335,18.282 38.452,18.425 38.549,18.576C40.194,16.19 39.68,12.909 37.337,11.163L37.11,10.994L43.684,2.162C44.134,1.563 44.008,0.714 43.408,0.268Z" style="fill:rgb(92,45,145);fill-rule:nonzero;"/>
        </g>
        <g transform="matrix(1,0,0,1,0,5)">
            <path d="M22.034,39.868L11.705,32.179C11.592,32.095 11.517,31.983 11.434,31.878C10.045,34.232 10.6,37.302 12.841,38.968L12.889,39.004L6.314,47.836C5.867,48.438 5.992,49.285 6.592,49.732C7.191,50.178 8.041,50.054 8.488,49.455L15.062,40.622L15.288,40.79C17.536,42.463 20.646,42.108 22.499,40.086C22.337,40.036 22.177,39.975 22.034,39.868Z" style="fill:rgb(92,45,145);fill-rule:nonzero;"/>
        </g>
    </g>
</svg>
