<?xml version="1.0" encoding="UTF-8"?>
<svg width="51px" height="37px" viewBox="0 0 51 37" version="1.1" xmlns="http://www.w3.org/2000/svg" xmlns:xlink="http://www.w3.org/1999/xlink">
    <!-- Generator: Sketch Beta 50 (54800) - http://www.bohemiancoding.com/sketch -->
    <title>svgexport-0 (2)</title>
    <desc>Created with Sketch Beta.</desc>
    <defs></defs>
    <g id="designs" stroke="none" stroke-width="1" fill="none" fill-rule="evenodd">
        <g id="Home" transform="translate(-627.000000, -563.000000)" fill="#5c2d91" fill-rule="nonzero">
            <g id="Group-9" transform="translate(135.000000, 552.000000)">
                <g id="Group-17" transform="translate(371.000000, 0.000000)">
                    <g id="Group-6" transform="translate(121.000000, 11.000000)">
                        <g id="svgexport-0-(2)">
                            <path d="M43.4575876,20 C47.591,20 50.9573875,16.7489712 51,12.7572016 C51,9.46502058 46.5256875,2.79835391 45.1620876,0.823045267 C44.7785751,0.288065844 44.1820001,0 43.5428126,0 C42.9036251,0 42.3070501,0.288065844 41.9235376,0.823045267 C40.5173251,2.79835391 36.0004001,9.46502058 36.0004001,12.7572016 C35.9577876,16.7489712 39.3241751,20 43.4575876,20 Z M43.5002001,5.3909465 C45.4177626,8.43621399 47.07965,11.6460905 47.07965,12.7983539 C47.07965,14.7325103 45.4603751,16.255144 43.4575876,16.255144 C41.4548001,16.255144 39.8781376,14.691358 39.8781376,12.7572016 C39.8781376,11.6049383 41.5826376,8.43621399 43.5002001,5.3909465 Z" id="Shape"></path>
                            <path d="M33,29.7310062 C33,26.4455852 28.5255682,19.7926078 27.1619318,17.8213552 C26.7784091,17.2874743 26.1818182,17 25.5426136,17 C24.9034091,17 24.3068182,17.2874743 23.9232955,17.8213552 C22.5170455,19.7926078 18,26.4455852 18,29.7310062 C18,33.7145791 21.3664773,36.9589322 25.5,37 C29.5909091,36.9589322 32.9573864,33.7145791 33,29.7310062 Z M25.4573864,33.1806982 C23.4545455,33.1806982 21.8778409,31.6201232 21.8778409,29.6899384 C21.8778409,28.5400411 23.5397727,25.3778234 25.5,22.338809 C27.4176136,25.3778234 29.0795455,28.5811088 29.0795455,29.7310062 C29.0795455,31.6201232 27.4602273,33.1806982 25.4573864,33.1806982 Z" id="Shape"></path>
                            <path d="M7.45758757,28 C11.591,28 14.9573875,24.7489712 15,20.7572016 C15,17.4650206 10.5256875,10.7983539 9.16208755,8.82304527 C8.77857506,8.28806584 8.18200006,8 7.54281257,8 C6.90362508,8 6.30705008,8.28806584 5.92353758,8.82304527 C4.5173251,10.7983539 0.000400139552,17.4650206 0.000400139552,20.7572016 C-0.0422123601,24.7489712 3.32417511,28 7.45758757,28 Z M7.50020007,13.3909465 C9.41776255,16.436214 11.07965,19.6460905 11.07965,20.7983539 C11.07965,22.7325103 9.46037505,24.255144 7.45758757,24.255144 C5.45480009,24.255144 3.8781376,22.691358 3.8781376,20.7572016 C3.8781376,19.6049383 5.58263759,16.436214 7.50020007,13.3909465 Z" id="Shape"></path>
                        </g>
                    </g>
                </g>
            </g>
        </g>
    </g>
</svg>
