<?xml version="1.0" encoding="UTF-8"?>
<svg width="14px" height="63px" viewBox="0 0 14 63" version="1.1" xmlns="http://www.w3.org/2000/svg" xmlns:xlink="http://www.w3.org/1999/xlink">
    <!-- Generator: Sketch Beta 50 (54800) - http://www.bohemiancoding.com/sketch -->
    <title>svgexport-0 (1)</title>
    <desc>Created with Sketch Beta.</desc>
    <defs></defs>
    <g id="designs" stroke="none" stroke-width="1" fill="none" fill-rule="evenodd">
        <g id="Home" transform="translate(-534.000000, -552.000000)" fill="#fff" fill-rule="nonzero">
            <g id="Group-9" transform="translate(135.000000, 552.000000)">
                <g id="Group-17" transform="translate(371.000000, 0.000000)">
                    <g id="Group-5">
                        <g id="svgexport-0-(1)" transform="translate(28.000000, 0.000000)">
                            <path d="M12.4627451,45.3351884 C13.5058824,43.8788527 14,42.2067637 14,40.1031678 L14,6.44563356 C14,2.88570205 10.8705882,0 7,0 C3.12941176,0 0,2.88570205 0,6.44563356 L0,40.1031678 C0,42.2067637 0.494117647,43.8788527 1.5372549,45.3351884 C2.47058824,46.6297089 3.76078431,47.6545377 5.24313725,48.7063356 C4.09019608,49.5423801 2.88235294,50.432363 1.92156863,51.5650685 C0.68627451,53.0214041 0.0549019608,54.666524 0.0549019608,56.4734589 C0.0549019608,57.7140411 0.219607843,59.5479452 1.86666667,61.0851884 L1.89411765,61.1121575 C3.26666667,62.3257705 5.02352941,63 6.89019608,63 L7.02745098,63 C8.89411765,63 10.6509804,62.3257705 12.0235294,61.1121575 L12.0509804,61.0851884 C13.6705882,59.5749144 13.8901961,57.8219178 13.8901961,56.4734589 C13.8901961,52.5898973 10.5686275,50.1087329 8.70196078,48.7333048 C10.2117647,47.6545377 11.5019608,46.6297089 12.4627451,45.3351884 Z M7,50.890839 C9.00392157,52.3471747 11.145098,54.1271404 11.145098,56.4734589 C11.145098,57.7140411 10.8980392,58.4422089 10.2117647,59.0625 C9.36078431,59.817637 8.2627451,60.2221747 7.10980392,60.2221747 L6.97254902,60.2221747 C5.81960784,60.2221747 4.72156863,59.817637 3.87058824,59.0625 C3.21176471,58.4422089 2.9372549,57.6870719 2.9372549,56.4734589 C2.88235294,53.9922945 4.66666667,52.5359589 7,50.890839 Z M2.8,32.7675514 L7.10980392,32.7675514 C7.90588235,32.7675514 8.5372549,32.1472603 8.5372549,31.3651541 C8.5372549,30.5830479 7.90588235,29.9627568 7.10980392,29.9627568 L2.8,29.9627568 L2.8,26.4567637 L7.08235294,26.4567637 C7.87843137,26.4567637 8.50980392,25.8364726 8.50980392,25.0543664 C8.50980392,24.2722603 7.87843137,23.6519692 7.08235294,23.6519692 L2.82745098,23.6519692 L2.82745098,19.9302226 L7.08235294,19.9302226 C7.87843137,19.9302226 8.50980392,19.3099315 8.50980392,18.5278253 C8.50980392,17.7457192 7.87843137,17.1254281 7.08235294,17.1254281 L2.82745098,17.1254281 L2.82745098,13.6194349 L7.08235294,13.6194349 C7.87843137,13.6194349 8.50980392,12.9991438 8.50980392,12.2170377 C8.50980392,11.4349315 7.87843137,10.8146404 7.08235294,10.8146404 L2.82745098,10.8146404 L2.82745098,6.41866438 C2.82745098,4.36900685 4.69411765,2.72388699 7.02745098,2.72388699 C9.33333333,2.72388699 11.227451,4.36900685 11.227451,6.41866438 L11.227451,40.0761986 C11.227451,43.1506849 10.0196078,44.3642979 7.02745098,46.5218322 C4.0627451,44.3373288 2.82745098,43.1506849 2.82745098,40.0761986 L2.82745098,32.7675514 L2.8,32.7675514 Z" id="Shape"></path>
                        </g>
                    </g>
                </g>
            </g>
        </g>
    </g>
</svg>
