<?xml version="1.0" encoding="UTF-8" standalone="no"?>
<!DOCTYPE svg PUBLIC "-//W3C//DTD SVG 1.1//EN" "http://www.w3.org/Graphics/SVG/1.1/DTD/svg11.dtd">
<svg width="100%" height="100%" viewBox="0 0 32 32" version="1.1" xmlns="http://www.w3.org/2000/svg" xmlns:xlink="http://www.w3.org/1999/xlink" xml:space="preserve" xmlns:serif="http://www.serif.com/" style="fill-rule:evenodd;clip-rule:evenodd;stroke-linejoin:round;stroke-miterlimit:1.41421;">
    <path d="M3.969,28.031L2.719,28.031C2.365,28.031 2.063,28.151 1.813,28.39C1.563,28.629 1.438,28.926 1.438,29.281C1.438,29.636 1.563,29.938 1.813,30.187C2.063,30.436 2.365,30.561 2.719,30.562C3.073,30.563 3.37,30.438 3.61,30.187C3.85,29.936 3.97,29.634 3.969,29.281L3.969,28.031ZM2.719,32C1.969,32 1.328,31.734 0.797,31.203C0.266,30.672 0,30.031 0,29.281C0,28.531 0.266,27.89 0.797,27.359C1.328,26.828 1.969,26.562 2.719,26.562L3.969,26.562L3.969,0.718C3.969,0.531 4.042,0.364 4.188,0.218C4.334,0.072 4.511,-0.001 4.719,-0.001C4.906,-0.001 5.073,0.072 5.219,0.218C5.365,0.364 5.438,0.531 5.438,0.718L5.438,26.562L6.688,26.562C7.042,26.562 7.344,26.442 7.594,26.203C7.844,25.964 7.969,25.667 7.969,25.312L7.969,17.312C7.969,16.583 8.235,15.952 8.766,15.421C9.297,14.89 9.938,14.624 10.688,14.624C11.438,14.624 12.079,14.89 12.61,15.421C13.141,15.952 13.407,16.593 13.407,17.343L13.407,25.312C13.407,25.666 13.527,25.963 13.766,26.203C14.005,26.443 14.302,26.563 14.657,26.562C15.012,26.561 15.314,26.442 15.563,26.203C15.812,25.964 15.937,25.667 15.938,25.312L15.938,8.656C15.938,7.906 16.204,7.265 16.735,6.734C17.266,6.203 17.907,5.937 18.657,5.937C19.407,5.937 20.042,6.203 20.563,6.734C21.084,7.265 21.344,7.906 21.344,8.656L21.344,25.312C21.344,25.666 21.469,25.963 21.719,26.203C21.969,26.443 22.271,26.563 22.625,26.562C22.979,26.561 23.281,26.442 23.531,26.203C23.781,25.964 23.906,25.667 23.906,25.312L23.906,2.812C23.906,2.062 24.172,1.427 24.703,0.906C25.234,0.385 25.875,0.125 26.625,0.125C27.354,0.125 27.985,0.385 28.516,0.906C29.047,1.427 29.313,2.062 29.313,2.812L29.313,25.312C29.313,25.666 29.438,25.963 29.688,26.203C29.938,26.443 30.24,26.563 30.594,26.562L31.25,26.562C31.459,26.562 31.631,26.635 31.766,26.781C31.901,26.927 31.969,27.094 31.969,27.281C31.969,27.49 31.901,27.667 31.766,27.812C31.631,27.957 31.459,28.03 31.25,28.031L30.594,28.031C29.844,28.031 29.203,27.765 28.672,27.234C28.141,26.703 27.875,26.062 27.875,25.312L27.875,2.812C27.875,2.479 27.75,2.187 27.5,1.937C27.25,1.687 26.958,1.562 26.625,1.562C26.271,1.562 25.969,1.687 25.719,1.937C25.469,2.187 25.344,2.479 25.344,2.812L25.344,25.312C25.344,26.062 25.078,26.703 24.547,27.234C24.016,27.765 23.375,28.031 22.625,28.031C21.875,28.031 21.234,27.765 20.703,27.234C20.172,26.703 19.906,26.062 19.906,25.312L19.906,8.656C19.906,8.302 19.781,8 19.531,7.75C19.281,7.5 18.989,7.375 18.656,7.375C18.302,7.375 18,7.5 17.75,7.75C17.5,8 17.375,8.302 17.375,8.656L17.375,25.312C17.375,26.062 17.109,26.703 16.578,27.234C16.047,27.765 15.406,28.031 14.656,28.031C13.927,28.031 13.296,27.765 12.765,27.234C12.234,26.703 11.958,26.072 11.937,25.343L11.937,17.343C11.937,16.989 11.817,16.687 11.578,16.437C11.339,16.187 11.042,16.062 10.687,16.062C10.332,16.062 10.03,16.187 9.781,16.437C9.532,16.687 9.407,16.989 9.406,17.343L9.406,25.312C9.406,26.062 9.14,26.703 8.609,27.234C8.078,27.765 7.437,28.031 6.687,28.031L5.437,28.031L5.437,29.312C5.416,30.041 5.145,30.672 4.624,31.203C4.103,31.734 3.467,32 2.718,32L2.719,32Z" style="fill:white;fill-rule:nonzero;"/>
</svg>
