<?xml version="1.0" encoding="UTF-8"?>
<svg width="63px" height="63px" viewBox="0 0 63 63" version="1.1" xmlns="http://www.w3.org/2000/svg" xmlns:xlink="http://www.w3.org/1999/xlink">
    <!-- Generator: Sketch Beta 50 (54800) - http://www.bohemiancoding.com/sketch -->
    <title>svgexport-0 (3)</title>
    <desc>Created with Sketch Beta.</desc>
    <defs></defs>
    <g id="designs" stroke="none" stroke-width="1" fill="none" fill-rule="evenodd">
        <g id="Home" transform="translate(-731.000000, -552.000000)" fill="#fff" fill-rule="nonzero">
            <g id="Group-9" transform="translate(135.000000, 552.000000)">
                <g id="Group-17" transform="translate(371.000000, 0.000000)">
                    <g id="svgexport-0-(3)" transform="translate(225.000000, 0.000000)">
                        <path d="M31.4444934,20.7594714 C37.4114537,20.7594714 42.2127753,25.5885463 42.2127753,31.5277533 C42.2127753,37.4947137 37.3837004,42.3237885 31.4444934,42.3237885 C25.477533,42.3237885 20.6762115,37.4947137 20.6762115,31.5277533 C20.6762115,25.5885463 25.5052863,20.7594714 31.4444934,20.7594714 M31.4444934,46.7088106 C39.8537445,46.7088106 46.6255507,39.8814978 46.6255507,31.5277533 C46.6255507,23.2017621 39.7982379,16.3744493 31.4444934,16.3744493 C23.0907489,16.3744493 16.2634361,23.2017621 16.2634361,31.5277533 C16.2911894,39.8814978 23.0629956,46.7088106 31.4444934,46.7088106" id="Shape"></path>
                        <path d="M33.6647577,9.35286344 L33.6647577,2.35903084 C33.6647577,1.11013216 32.6933921,0.13876652 31.4444934,0.13876652 C30.1955947,0.13876652 29.2242291,1.11013216 29.2242291,2.35903084 L29.2242291,9.35286344 C29.2242291,10.6017621 30.1955947,11.5731278 31.4444934,11.5731278 C32.6933921,11.5731278 33.6647577,10.6017621 33.6647577,9.35286344" id="Shape"></path>
                        <path d="M29.2242291,53.7581498 L29.2242291,60.7519824 C29.2242291,62.0008811 30.1955947,62.9722467 31.4444934,62.9722467 C32.6933921,62.9722467 33.6647577,62.0008811 33.6647577,60.7519824 L33.6647577,53.7581498 C33.6647577,52.5092511 32.6933921,51.5378855 31.4444934,51.5378855 C30.1955947,51.5378855 29.2242291,52.5092511 29.2242291,53.7581498" id="Shape"></path>
                        <path d="M48.7348018,17.4013216 L53.6748899,12.4612335 C54.5352423,11.6008811 54.5352423,10.1854626 53.6748899,9.32511013 C52.8145374,8.46475771 51.3991189,8.46475771 50.5387665,9.32511013 L45.5986784,14.2651982 C44.738326,15.1255507 44.738326,16.5409692 45.5986784,17.4013216 C46.0427313,17.8453744 46.5700441,18.0396476 47.1806167,18.0396476 C47.7634361,18.0674009 48.2907489,17.8453744 48.7348018,17.4013216" id="Shape"></path>
                        <path d="M9.24185022,53.7581498 C9.68590308,54.2022026 10.2132159,54.3964758 10.8237885,54.3964758 C11.3511013,54.3964758 11.961674,54.1744493 12.4057269,53.7581498 L17.345815,48.8180617 C18.2061674,47.9577093 18.2061674,46.5422907 17.345815,45.6819383 C16.4854626,44.8215859 15.0700441,44.8215859 14.2096916,45.6819383 L9.26960352,50.6220264 C8.3814978,51.4823789 8.3814978,52.8977974 9.24185022,53.7581498" id="Shape"></path>
                        <path d="M62.8612335,31.5555066 C62.8612335,30.3066079 61.8898678,29.3352423 60.6409692,29.3352423 L53.6471366,29.3352423 C52.3982379,29.3352423 51.4268722,30.3066079 51.4268722,31.5555066 C51.4268722,32.8044053 52.3982379,33.7757709 53.6471366,33.7757709 L60.6409692,33.7757709 C61.8343612,33.7757709 62.8612335,32.8044053 62.8612335,31.5555066" id="Shape"></path>
                        <path d="M2.24801762,33.7757709 L9.24185022,33.7757709 C10.4907489,33.7757709 11.4621145,32.8044053 11.4621145,31.5555066 C11.4621145,30.3066079 10.4907489,29.3352423 9.24185022,29.3352423 L2.24801762,29.3352423 C0.999118943,29.3352423 0.027753304,30.3066079 0.027753304,31.5555066 C0.027753304,32.8044053 1.05462555,33.7757709 2.24801762,33.7757709" id="Shape"></path>
                        <path d="M52.0929515,54.4242291 C52.6480176,54.4242291 53.230837,54.2022026 53.6748899,53.7859031 C54.5352423,52.9255507 54.5352423,51.5101322 53.6748899,50.6497797 L48.7348018,45.7096916 C47.8744493,44.8493392 46.4590308,44.8493392 45.5986784,45.7096916 C44.738326,46.5700441 44.738326,47.9854626 45.5986784,48.845815 L50.5387665,53.7859031 C50.9550661,54.2022026 51.5378855,54.4242291 52.0929515,54.4242291" id="Shape"></path>
                        <path d="M17.3180617,17.4013216 C18.1784141,16.5409692 18.1784141,15.1255507 17.3180617,14.2651982 L12.3779736,9.32511013 C11.5176211,8.46475771 10.1022026,8.46475771 9.24185022,9.32511013 C8.3814978,10.1854626 8.3814978,11.6008811 9.24185022,12.4612335 L14.1819383,17.4013216 C14.6259912,17.8453744 15.153304,18.0396476 15.7638767,18.0396476 C16.346696,18.0674009 16.8740088,17.8453744 17.3180617,17.4013216" id="Shape"></path>
                    </g>
                </g>
            </g>
        </g>
    </g>
</svg>
